<?xml version="1.0" encoding="UTF-8"?>
<!-- Generator: Adobe Illustrator 24.3.0, SVG Export Plug-In . SVG Version: 6.00 Build 0)  -->
<!DOCTYPE svg PUBLIC "-//W3C//DTD SVG 1.1//EN" "http://www.w3.org/Graphics/SVG/1.1/DTD/svg11.dtd">
<svg version="1.1" id="Layer_1" xmlns:x="http://ns.adobe.com/Extensibility/1.0/" xmlns:i="http://ns.adobe.com/AdobeIllustrator/10.0/" xmlns:graph="http://ns.adobe.com/Graphs/1.0/" xmlns="http://www.w3.org/2000/svg" xmlns:xlink="http://www.w3.org/1999/xlink" x="0px" y="0px" viewBox="0 0 19.8 19.8" style="enable-background:new 0 0 19.8 19.8;" xml:space="preserve">
<metadata>
	<sfw xmlns="http://ns.adobe.com/SaveForWeb/1.0/">
		<slices/>
		<sliceSourceBounds bottomLeftOrigin="true" height="18.9" width="19.8" x="0.1" y="0.2"/>
	</sfw>
</metadata>
<path d="M19.7,13.6c-0.6-1.5-1.8-2.8-3.4-3.3c-0.7-0.2-1.2-0.9-1.2-1.7v0c0.5-0.9,0.8-2,0.8-3c0-3.4-1.3-5.1-4.1-5.1  c-1.9-0.2-3.5,1.1-3.8,3H7.9c-1.6,0-4,0-4,5c0,1.2,0.4,2.4,1.1,3.4c-0.4,0.6-0.9,1.1-1.6,1.5c-1.6,0.6-2.8,1.8-3.4,3.4  c-0.2,0.6-0.1,1.3,0.3,1.9c0.4,0.5,1,0.9,1.7,0.9h11.8c0.7,0,1.3-0.3,1.7-0.9c0.4-0.5,0.5-1.2,0.3-1.9c0-0.1-0.1-0.2-0.1-0.3h2.1  c0.7,0,1.3-0.3,1.7-0.9C19.9,14.9,19.9,14.2,19.7,13.6L19.7,13.6z M7.9,5.4c1.4,0,2,0,2,3c0,1.7-1.1,3-2,3s-2-1.3-2-3  C6,5.4,6.6,5.4,7.9,5.4z M13.8,17.3H2.1c0,0-0.1,0-0.1-0.1c0.4-1,1.2-1.8,2.2-2.2c1-0.4,1.8-1.1,2.4-2c0.8,0.4,1.8,0.4,2.7,0  c0.6,0.9,1.4,1.6,2.4,2C12.7,15.4,13.5,16.2,13.8,17.3C13.9,17.3,13.8,17.3,13.8,17.3L13.8,17.3z M17.8,14.3h-3.6  c-0.5-0.5-1.2-0.9-1.8-1.1c-0.7-0.3-1.2-0.8-1.6-1.5c0.7-1,1.1-2.2,1.1-3.4c0-3-0.9-4.2-1.9-4.6c0.1-0.9,1-1.5,1.9-1.3l0,0  c0.9,0,2.1,0,2.1,3.1c0,0.7-0.2,1.4-0.5,2l-0.3,0.5v0.5c0,1.6,1,3,2.5,3.5C16.7,12.5,17.5,13.3,17.8,14.3  C17.8,14.3,17.8,14.3,17.8,14.3L17.8,14.3z"/>
</svg>